<svg xmlns="http://www.w3.org/2000/svg" width="19.272" height="19.272" viewBox="0 0 19.272 19.272">
    <defs>
        <style>
            .cls-1{fill:#b3b3b3}.cls-2{clip-path:url(#clip-path)}
        </style>
        <clipPath id="clip-path">
            <path id="Path_3" d="M19.272 0v19.272H0V0z" class="cls-1" data-name="Path 3"/>
        </clipPath>
    </defs>
    <g id="baseline-copyright-24px" class="cls-2">
        <path id="Path_2" d="M8.488 9.115a2.053 2.053 0 0 1 .241-.7 1.4 1.4 0 0 1 .474-.5 1.425 1.425 0 0 1 .731-.185 1.456 1.456 0 0 1 .506.1 1.3 1.3 0 0 1 .418.289 1.546 1.546 0 0 1 .273.426 1.406 1.406 0 0 1 .112.514h1.437a2.874 2.874 0 0 0-.225-1.036 2.41 2.41 0 0 0-.562-.811 2.623 2.623 0 0 0-.867-.53A3.1 3.1 0 0 0 9.91 6.5a3.138 3.138 0 0 0-1.365.273 2.761 2.761 0 0 0-.964.739 3.019 3.019 0 0 0-.57 1.092 4.7 4.7 0 0 0-.193 1.317v.217A4.7 4.7 0 0 0 7 11.459a2.919 2.919 0 0 0 .57 1.084 2.741 2.741 0 0 0 .964.731 3.259 3.259 0 0 0 1.365.273 3.063 3.063 0 0 0 1.06-.185 2.739 2.739 0 0 0 .867-.506 2.451 2.451 0 0 0 .594-.755 2.161 2.161 0 0 0 .241-.923h-1.434a1.143 1.143 0 0 1-.12.466 1.182 1.182 0 0 1-.289.369 1.265 1.265 0 0 1-.418.241 1.6 1.6 0 0 1-.482.08 1.364 1.364 0 0 1-.718-.184 1.4 1.4 0 0 1-.474-.5 2.1 2.1 0 0 1-.241-.707 5.412 5.412 0 0 1-.064-.8v-.217a5.35 5.35 0 0 1 .064-.811zM10.03 2a8.03 8.03 0 1 0 8.03 8.03A8.033 8.033 0 0 0 10.03 2zm0 14.454a6.424 6.424 0 1 1 6.424-6.424 6.433 6.433 0 0 1-6.424 6.424z" class="cls-1" data-name="Path 2" transform="translate(-.394 -.394)"/>
    </g>
</svg>
